<svg width="485" height="250" viewBox="0 0 485 250" fill="none" xmlns="http://www.w3.org/2000/svg">
<g filter="url(#filter0_d_37_14)">
<path fill-rule="evenodd" clip-rule="evenodd" d="M131.931 5.62816L159.501 2.7901C162.41 2.49062 163.984 6.10617 161.783 8.03206L138.566 28.3475C131.758 36.2514 124.192 46.7196 120.894 58.3679C117.607 69.9807 118.55 82.7862 128.842 95.5041L127.287 96.7622C116.538 83.4797 115.527 69.9839 118.97 57.8231C122.305 46.0419 129.81 35.5334 136.553 27.6228C136.358 27.4022 136.124 27.1487 135.853 26.8541C135.795 26.7914 135.736 26.7269 135.675 26.6604C135.053 25.9845 134.309 25.1634 133.581 24.21C132.127 22.3057 130.692 19.8175 130.36 16.7488C130.133 14.6453 130.158 12.396 130.29 10.5198C130.376 9.30202 130.509 8.19501 130.66 7.36723C109.071 1.89717 92.5351 2.70682 75.2905 12.6429C50.1931 27.1036 46.2629 53.7553 46.2629 67.5327C46.2629 86.4376 50.7972 102.068 55.0423 115.181C62.8133 139.185 66.21 156.083 65.5541 169.812C64.8954 183.602 60.1535 194.116 51.851 205.351C40.2759 221.015 25.0447 229.224 15.6734 234.274C15.5214 234.356 15.371 234.437 15.2222 234.518C70.0174 241.919 105.086 234.809 124.196 223.195L125.235 224.904C105.209 237.074 68.6652 244.184 11.94 236.081L9 235.661L11.5953 234.217C12.5517 233.685 13.6032 233.117 14.7341 232.507C24.1138 227.447 38.9505 219.443 50.2426 204.163C58.3786 193.153 62.9214 183.011 63.5564 169.717C64.1943 156.363 60.8939 139.749 53.1396 115.797C48.879 102.636 44.2629 86.7618 44.2629 67.5327C44.2629 53.5224 48.2475 25.9163 74.292 10.9099C92.3246 0.519874 109.623 -0.145225 131.931 5.62816ZM137.972 26.2092L160.466 6.52691C161.2 5.88494 160.675 4.67976 159.705 4.77959L132.658 7.56392C132.523 8.25496 132.378 9.3412 132.285 10.66C132.159 12.4568 132.137 14.5816 132.348 16.5339C132.625 19.0968 133.831 21.2419 135.171 22.9964C135.839 23.8724 136.531 24.637 137.146 25.3061C137.212 25.3776 137.278 25.4487 137.343 25.5195C137.561 25.7555 137.774 25.987 137.972 26.2092ZM105.407 36.1397C112.762 39.2907 118.402 43.9591 121.035 46.4092C121.44 46.7854 121.462 47.4182 121.086 47.8225C120.71 48.2269 120.077 48.2497 119.673 47.8735C117.131 45.5087 111.684 41.0046 104.619 37.9781C97.5625 34.9552 88.9674 33.4348 80.0322 36.8935C62.0878 43.8397 59.1676 60.8862 59.3613 66.5447C59.3781 66.9346 59.3914 67.3425 59.4053 67.7686C59.5177 71.2215 59.669 75.8694 62.0749 81.819C64.7804 88.5096 70.3728 96.9114 82.1379 106.96C83.6237 108.229 85.4247 109.545 87.4517 111.004C87.6733 111.163 87.8975 111.324 88.1241 111.487C89.9593 112.806 91.9502 114.237 93.9936 115.825C98.5902 119.397 103.491 123.789 107.668 129.637C113.175 137.349 116.854 149.568 116.854 163.719V166.234L115.127 164.405C106.626 155.404 101.594 150.179 93.757 144.345C86.6971 139.09 76.2682 134.821 67.5104 136.206C66.9649 136.293 66.4527 135.92 66.3664 135.375C66.2802 134.829 66.6524 134.317 67.1979 134.231C76.7051 132.727 87.6759 137.325 94.9513 142.741C102.374 148.267 107.335 153.269 114.813 161.162C114.4 148.423 110.922 137.636 106.04 130.8C102.019 125.169 97.2812 120.912 92.7665 117.404C90.7545 115.841 88.7945 114.432 86.9569 113.111C86.7304 112.949 86.5059 112.787 86.2833 112.627C84.2644 111.174 82.3974 109.812 80.839 108.481C68.8933 98.278 63.0747 89.6263 60.2208 82.5687C57.6762 76.2762 57.517 71.3028 57.4058 67.8318C57.3923 67.4076 57.3794 67.0059 57.363 66.6269L57.3626 66.6181L57.3626 66.6181C57.1521 60.5239 60.2422 42.4095 79.3102 35.0284C88.8836 31.3226 98.0423 32.9849 105.407 36.1397ZM88.727 149.649C89.2748 149.579 89.7758 149.966 89.846 150.514C90.0825 152.359 90.3248 154.139 90.5593 155.862C91.5545 163.174 92.4113 169.469 92.1028 175.381C91.7171 182.774 89.5187 189.592 83.6478 197.25C75.9416 207.301 65.1348 213.513 55.1919 217.582C48.2928 220.406 41.6636 222.245 36.8192 223.589C34.7307 224.168 32.974 224.656 31.6704 225.09C31.1465 225.265 30.5801 224.982 30.4055 224.458C30.2308 223.934 30.514 223.367 31.0379 223.193C32.4869 222.71 34.3399 222.196 36.5006 221.598C41.308 220.266 47.6391 218.513 54.4342 215.731C64.2139 211.728 74.6571 205.69 82.0606 196.033C87.6897 188.691 89.7412 182.259 90.1055 175.277C90.4033 169.57 89.5797 163.511 88.5883 156.218C88.3516 154.476 88.1052 152.663 87.8623 150.769C87.7921 150.221 88.1792 149.72 88.727 149.649Z" fill="url(#paint0_linear_37_14)"/>
<path d="M159.501 2.7901L159.654 4.28222L159.654 4.28222L159.501 2.7901ZM131.931 5.62816L131.555 7.08032L131.816 7.1479L132.085 7.12028L131.931 5.62816ZM161.783 8.03206L160.796 6.9032L160.796 6.9032L161.783 8.03206ZM138.566 28.3475L137.578 27.2187L137.498 27.2884L137.429 27.3686L138.566 28.3475ZM120.894 58.3679L119.451 57.9593L119.451 57.9593L120.894 58.3679ZM128.842 95.5041L129.785 96.6701L130.951 95.7265L130.008 94.5605L128.842 95.5041ZM127.287 96.7622L126.121 97.7058L127.064 98.8718L128.23 97.9282L127.287 96.7622ZM118.97 57.8231L120.413 58.2317L120.413 58.2317L118.97 57.8231ZM136.553 27.6228L137.694 28.5959L138.539 27.6054L137.677 26.6299L136.553 27.6228ZM135.853 26.8541L136.956 25.8377L136.956 25.8376L135.853 26.8541ZM135.675 26.6604L134.571 27.6762L134.571 27.6762L135.675 26.6604ZM133.581 24.21L134.773 23.2998L134.773 23.2998L133.581 24.21ZM130.36 16.7488L128.869 16.9101L128.869 16.9101L130.36 16.7488ZM130.29 10.5198L128.794 10.4146L128.794 10.4146L130.29 10.5198ZM130.66 7.36723L132.136 7.63621L132.387 6.25741L131.028 5.91318L130.66 7.36723ZM75.2905 12.6429L76.0394 13.9426L76.0394 13.9426L75.2905 12.6429ZM55.0423 115.181L53.6153 115.643L53.6153 115.643L55.0423 115.181ZM65.5541 169.812L64.0558 169.741L64.0558 169.741L65.5541 169.812ZM51.851 205.351L50.6447 204.46L50.6447 204.46L51.851 205.351ZM15.6734 234.274L14.9617 232.954L14.9617 232.954L15.6734 234.274ZM15.2222 234.518L14.5103 233.197L10.4499 235.387L15.0214 236.004L15.2222 234.518ZM124.196 223.195L125.478 222.416L124.699 221.134L123.417 221.913L124.196 223.195ZM125.235 224.904L126.014 226.186L127.296 225.407L126.517 224.125L125.235 224.904ZM11.94 236.081L12.1522 234.596L12.1522 234.596L11.94 236.081ZM9 235.661L8.27078 234.35L4.37779 236.515L8.78786 237.146L9 235.661ZM11.5953 234.217L12.3245 235.528L12.3245 235.528L11.5953 234.217ZM14.7341 232.507L15.4462 233.828L15.4462 233.828L14.7341 232.507ZM50.2426 204.163L49.0362 203.271L49.0362 203.271L50.2426 204.163ZM63.5564 169.717L65.0547 169.789L65.0547 169.789L63.5564 169.717ZM53.1396 115.797L54.5667 115.335L54.5667 115.335L53.1396 115.797ZM74.292 10.9099L75.0409 12.2096L75.0409 12.2096L74.292 10.9099ZM160.466 6.52691L161.454 7.65577L161.454 7.65577L160.466 6.52691ZM137.972 26.2092L136.852 27.2066L137.841 28.3173L138.96 27.338L137.972 26.2092ZM159.705 4.77959L159.859 6.2717L159.859 6.2717L159.705 4.77959ZM132.658 7.56392L132.504 6.0718L131.398 6.18564L131.185 7.27684L132.658 7.56392ZM132.285 10.66L130.789 10.5548L130.789 10.5548L132.285 10.66ZM132.348 16.5339L133.84 16.3726L133.84 16.3726L132.348 16.5339ZM135.171 22.9964L136.363 22.0861L136.363 22.0861L135.171 22.9964ZM137.146 25.3061L138.25 24.2904L138.25 24.2904L137.146 25.3061ZM137.343 25.5195L136.241 26.5368L136.241 26.5368L137.343 25.5195ZM121.035 46.4092L120.014 47.5074L120.014 47.5074L121.035 46.4092ZM105.407 36.1397L105.997 34.7608L105.997 34.7608L105.407 36.1397ZM119.673 47.8735L120.695 46.7753L120.695 46.7753L119.673 47.8735ZM104.619 37.9781L104.028 39.3569L104.028 39.3569L104.619 37.9781ZM80.0322 36.8935L79.4907 35.4947L80.0322 36.8935ZM59.3613 66.5447L57.8621 66.596L57.8627 66.6095L59.3613 66.5447ZM59.4053 67.7686L60.9045 67.7198L60.9045 67.7198L59.4053 67.7686ZM62.0749 81.819L63.4655 81.2566L63.4655 81.2566L62.0749 81.819ZM82.1379 106.96L81.1637 108.101L81.1637 108.101L82.1379 106.96ZM87.4517 111.004L86.5754 112.221L86.5754 112.221L87.4517 111.004ZM88.1241 111.487L88.9996 110.269L88.9996 110.269L88.1241 111.487ZM93.9936 115.825L93.0733 117.01L93.0733 117.01L93.9936 115.825ZM107.668 129.637L106.447 130.509L106.447 130.509L107.668 129.637ZM116.854 166.234L115.764 167.264L118.354 170.007V166.234H116.854ZM115.127 164.405L114.037 165.435L114.037 165.435L115.127 164.405ZM93.757 144.345L94.6527 143.142L94.6527 143.142L93.757 144.345ZM67.5104 136.206L67.7447 137.688L67.7447 137.688L67.5104 136.206ZM67.1979 134.231L66.9636 132.749L66.9636 132.749L67.1979 134.231ZM94.9513 142.741L94.0556 143.944L94.0556 143.944L94.9513 142.741ZM114.813 161.162L113.724 162.194L116.44 165.061L116.312 161.113L114.813 161.162ZM106.04 130.8L107.261 129.928L107.261 129.928L106.04 130.8ZM92.7665 117.404L93.6868 116.22L93.6868 116.22L92.7665 117.404ZM86.9569 113.111L87.8324 111.893L87.8324 111.893L86.9569 113.111ZM86.2833 112.627L87.1596 111.409L87.1596 111.409L86.2833 112.627ZM80.839 108.481L79.8648 109.621L79.8648 109.621L80.839 108.481ZM60.2208 82.5687L61.6114 82.0064L61.6114 82.0064L60.2208 82.5687ZM57.4058 67.8318L55.9066 67.8798L55.9066 67.8798L57.4058 67.8318ZM57.363 66.6269L55.8644 66.6917L55.8644 66.6918L57.363 66.6269ZM57.3626 66.6181L57.2133 65.1256L55.8028 65.2666L55.864 66.6829L57.3626 66.6181ZM57.3626 66.6181L57.5119 68.1107L58.9103 67.9708L58.8617 66.5663L57.3626 66.6181ZM79.3102 35.0284L78.7687 33.6295L78.7687 33.6295L79.3102 35.0284ZM89.846 150.514L91.3339 150.323L91.3339 150.323L89.846 150.514ZM88.727 149.649L88.9177 151.137L88.9177 151.137L88.727 149.649ZM90.5593 155.862L89.073 156.064L89.073 156.064L90.5593 155.862ZM92.1028 175.381L93.6008 175.459L93.6008 175.459L92.1028 175.381ZM83.6478 197.25L82.4574 196.337L82.4574 196.337L83.6478 197.25ZM55.1919 217.582L54.6236 216.194L54.6236 216.194L55.1919 217.582ZM36.8192 223.589L37.2201 225.034L37.2201 225.034L36.8192 223.589ZM31.6704 225.09L31.1961 223.667L31.196 223.667L31.6704 225.09ZM30.4055 224.458L28.9825 224.932L28.9825 224.932L30.4055 224.458ZM31.0379 223.193L30.5636 221.77L30.5636 221.77L31.0379 223.193ZM36.5006 221.598L36.901 223.044L36.901 223.044L36.5006 221.598ZM54.4342 215.731L55.0025 217.12L55.0025 217.12L54.4342 215.731ZM82.0606 196.033L80.8702 195.12L80.8702 195.12L82.0606 196.033ZM90.1055 175.277L88.6076 175.199L88.6076 175.199L90.1055 175.277ZM88.5883 156.218L87.102 156.42L87.102 156.42L88.5883 156.218ZM87.8623 150.769L86.3745 150.959L86.3745 150.959L87.8623 150.769ZM159.347 1.29799L131.777 4.13605L132.085 7.12028L159.654 4.28222L159.347 1.29799ZM162.771 9.16093C166.073 6.2721 163.711 0.848757 159.347 1.29799L159.654 4.28222C161.109 4.13248 161.896 5.94024 160.796 6.9032L162.771 9.16093ZM139.553 29.4764L162.771 9.16093L160.796 6.9032L137.578 27.2187L139.553 29.4764ZM122.338 58.7765C125.545 47.4461 132.939 37.1783 139.702 29.3265L137.429 27.3686C130.577 35.3245 122.839 45.9931 119.451 57.9593L122.338 58.7765ZM130.008 94.5605C120.059 82.266 119.166 69.9782 122.338 58.7765L119.451 57.9593C116.047 69.9832 117.041 83.3064 127.676 96.4477L130.008 94.5605ZM128.23 97.9282L129.785 96.6701L127.898 94.338L126.343 95.5962L128.23 97.9282ZM117.527 57.4145C113.968 69.9861 115.03 83.9997 126.121 97.7058L128.453 95.8186C118.047 82.9597 117.087 69.9816 120.413 58.2317L117.527 57.4145ZM135.411 26.6498C128.621 34.6156 120.95 45.3217 117.527 57.4145L120.413 58.2317C123.66 46.762 130.998 36.4513 137.694 28.5959L135.411 26.6498ZM134.75 27.8706C135.025 28.1689 135.246 28.4095 135.429 28.6158L137.677 26.6299C137.47 26.3948 137.224 26.1285 136.956 25.8377L134.75 27.8706ZM134.571 27.6762C134.632 27.7431 134.692 27.8079 134.75 27.8706L136.956 25.8376C136.898 25.7749 136.839 25.7108 136.778 25.6447L134.571 27.6762ZM132.389 25.1203C133.161 26.1316 133.944 26.995 134.571 27.6762L136.778 25.6447C136.161 24.9739 135.457 24.1952 134.773 23.2998L132.389 25.1203ZM128.869 16.9101C129.241 20.358 130.849 23.1036 132.389 25.1203L134.773 23.2998C133.405 21.5078 132.142 19.277 131.851 16.5876L128.869 16.9101ZM128.794 10.4146C128.658 12.3505 128.629 14.6931 128.869 16.9101L131.851 16.5876C131.636 14.5975 131.659 12.4416 131.786 10.6249L128.794 10.4146ZM129.184 7.09824C129.021 7.99406 128.882 9.15801 128.794 10.4146L131.786 10.6249C131.869 9.44603 131.997 8.39597 132.136 7.63621L129.184 7.09824ZM76.0394 13.9426C92.8535 4.25458 108.963 3.41725 130.292 8.82128L131.028 5.91318C109.179 0.377094 92.2168 1.15906 74.5417 11.3432L76.0394 13.9426ZM47.7629 67.5327C47.7629 53.9304 51.652 27.9941 76.0394 13.9426L74.5417 11.3432C48.7341 26.213 44.7629 53.5801 44.7629 67.5327H47.7629ZM56.4694 114.719C52.2358 101.642 47.7629 86.1944 47.7629 67.5327H44.7629C44.7629 86.6807 49.3586 102.494 53.6153 115.643L56.4694 114.719ZM67.0524 169.884C67.7217 155.873 64.2529 138.761 56.4694 114.719L53.6153 115.643C61.3737 139.608 64.6982 156.293 64.0558 169.741L67.0524 169.884ZM53.0574 206.243C61.4847 194.839 66.3759 184.046 67.0524 169.884L64.0558 169.741C63.4149 183.159 58.8223 193.394 50.6447 204.46L53.0574 206.243ZM16.385 235.595C25.759 230.543 41.2644 222.201 53.0574 206.243L50.6447 204.46C39.2874 219.828 24.3304 227.905 14.9617 232.954L16.385 235.595ZM15.9341 235.838C16.0828 235.758 16.2331 235.677 16.3851 235.595L14.9617 232.954C14.8098 233.036 14.6593 233.117 14.5103 233.197L15.9341 235.838ZM123.417 221.913C104.727 233.271 70.0613 240.411 15.423 233.031L15.0214 236.004C69.9735 243.426 105.445 236.346 124.975 224.477L123.417 221.913ZM126.517 224.125L125.478 222.416L122.914 223.974L123.953 225.683L126.517 224.125ZM11.7279 237.566C68.6085 245.692 105.561 238.615 126.014 226.186L124.456 223.623C104.857 235.533 68.7219 242.677 12.1522 234.596L11.7279 237.566ZM8.78786 237.146L11.7279 237.566L12.1522 234.596L9.21214 234.176L8.78786 237.146ZM10.8661 232.906L8.27078 234.35L9.72922 236.971L12.3245 235.528L10.8661 232.906ZM14.0219 231.187C12.8932 231.796 11.8326 232.368 10.8661 232.906L12.3245 235.528C13.2708 235.001 14.3133 234.439 15.4462 233.828L14.0219 231.187ZM49.0362 203.271C37.9621 218.257 23.4001 226.128 14.0219 231.187L15.4462 233.828C24.8274 228.767 39.9388 220.63 51.4489 205.054L49.0362 203.271ZM62.0581 169.645C61.4409 182.567 57.0474 192.43 49.0362 203.271L51.4489 205.054C59.7098 193.875 64.4019 183.454 65.0547 169.789L62.0581 169.645ZM51.7125 116.259C59.4543 140.173 62.6826 156.573 62.0581 169.645L65.0547 169.789C65.7061 156.153 62.3334 139.326 54.5667 115.335L51.7125 116.259ZM42.7629 67.5327C42.7629 87.0049 47.4404 103.063 51.7125 116.259L54.5667 115.335C50.3176 102.21 45.7629 86.5186 45.7629 67.5327H42.7629ZM73.5432 9.61023C46.7882 25.026 42.7629 53.3481 42.7629 67.5327H45.7629C45.7629 53.6966 49.7069 26.8066 75.0409 12.2096L73.5432 9.61023ZM132.307 4.17601C109.742 -1.66373 92.0131 -1.0318 73.5432 9.61023L75.0409 12.2096C92.6362 2.07155 109.503 1.37328 131.555 7.08032L132.307 4.17601ZM159.479 5.39804L136.985 25.0803L138.96 27.338L161.454 7.65577L159.479 5.39804ZM159.859 6.2717C159.374 6.32162 159.112 5.71901 159.479 5.39805L161.454 7.65577C163.288 6.05087 161.976 3.0379 159.552 3.28747L159.859 6.2717ZM132.811 9.05603L159.859 6.2717L159.552 3.28747L132.504 6.0718L132.811 9.05603ZM133.781 10.7651C133.871 9.48999 134.01 8.46693 134.13 7.85099L131.185 7.27684C131.036 8.04299 130.885 9.1924 130.789 10.5548L133.781 10.7651ZM133.84 16.3726C133.641 14.5338 133.659 12.5023 133.781 10.7651L130.789 10.5548C130.658 12.4112 130.634 14.6294 130.857 16.6951L133.84 16.3726ZM136.363 22.0861C135.109 20.4441 134.076 18.5564 133.84 16.3726L130.857 16.6951C131.175 19.6373 132.553 22.0397 133.978 23.9066L136.363 22.0861ZM138.25 24.2904C137.639 23.6264 136.987 22.9041 136.363 22.0861L133.978 23.9066C134.692 24.8407 135.422 25.6477 136.043 26.3219L138.25 24.2904ZM138.445 24.5021C138.38 24.4312 138.315 24.3609 138.25 24.2904L136.043 26.3218C136.109 26.3942 136.176 26.4662 136.241 26.5368L138.445 24.5021ZM139.093 25.2117C138.884 24.9777 138.661 24.736 138.445 24.5021L136.241 26.5368C136.46 26.7749 136.665 26.9963 136.852 27.2066L139.093 25.2117ZM122.057 45.311C119.355 42.7969 113.571 38.0052 105.997 34.7608L104.816 37.5185C111.954 40.5762 117.449 45.1213 120.014 47.5074L122.057 45.311ZM122.184 48.8443C123.125 47.8334 123.068 46.2515 122.057 45.311L120.014 47.5074C119.811 47.3193 119.8 47.0029 119.988 46.8008L122.184 48.8443ZM118.651 48.9717C119.662 49.9122 121.244 49.8551 122.184 48.8443L119.988 46.8008C120.176 46.5986 120.493 46.5872 120.695 46.7753L118.651 48.9717ZM104.028 39.3569C110.875 42.2901 116.178 46.6708 118.651 48.9717L120.695 46.7753C118.084 44.3465 112.493 39.7192 105.21 36.5993L104.028 39.3569ZM80.5737 38.2924C89.0304 35.0188 97.2029 36.4329 104.028 39.3569L105.21 36.5993C97.9222 33.4774 88.9044 31.8507 79.4907 35.4947L80.5737 38.2924ZM60.8604 66.4934C60.6781 61.1663 63.4674 44.9141 80.5737 38.2924L79.4907 35.4947C60.7082 42.7653 57.6571 60.6062 57.8622 66.596L60.8604 66.4934ZM60.9045 67.7198C60.8907 67.2954 60.8772 66.8793 60.8599 66.48L57.8627 66.6095C57.8791 66.99 57.8922 67.3896 57.9061 67.8174L60.9045 67.7198ZM63.4655 81.2566C61.163 75.5627 61.0157 71.1351 60.9045 67.7198L57.9061 67.8174C58.0197 71.3078 58.1751 76.1761 60.6843 82.3813L63.4655 81.2566ZM83.1121 105.819C71.4824 95.8865 66.0597 87.672 63.4655 81.2566L60.6843 82.3813C63.5011 89.3471 69.2632 97.9363 81.1637 108.101L83.1121 105.819ZM88.328 109.786C86.2948 108.323 84.5433 107.042 83.1121 105.819L81.1637 108.101C82.704 109.416 84.5545 110.766 86.5754 112.221L88.328 109.786ZM88.9996 110.269C88.7729 110.106 88.5491 109.945 88.328 109.786L86.5754 112.221C86.7975 112.381 87.0221 112.542 87.2486 112.705L88.9996 110.269ZM94.9139 114.641C92.8452 113.033 90.8324 111.587 88.9996 110.269L87.2486 112.705C89.0862 114.026 91.0552 115.442 93.0733 117.01L94.9139 114.641ZM108.889 128.766C104.596 122.755 99.5719 118.26 94.9139 114.641L93.0733 117.01C97.6084 120.533 102.387 124.824 106.447 130.509L108.889 128.766ZM118.354 163.719C118.354 149.343 114.622 136.794 108.889 128.766L106.447 130.509C111.728 137.903 115.354 149.794 115.354 163.719H118.354ZM118.354 166.234V163.719H115.354V166.234H118.354ZM114.037 165.435L115.764 167.264L117.945 165.204L116.218 163.375L114.037 165.435ZM92.8614 145.549C100.582 151.296 105.534 156.432 114.037 165.435L116.218 163.375C107.718 154.376 102.606 149.063 94.6527 143.142L92.8614 145.549ZM67.7447 137.688C75.9407 136.392 85.9632 140.413 92.8614 145.549L94.6527 143.142C87.431 137.766 76.5957 133.251 67.2761 134.725L67.7447 137.688ZM64.8849 135.609C65.1006 136.973 66.381 137.904 67.7447 137.688L67.2761 134.725C67.5488 134.682 67.8049 134.868 67.848 135.14L64.8849 135.609ZM66.9636 132.749C65.5998 132.965 64.6692 134.245 64.8849 135.609L67.848 135.14C67.8912 135.413 67.705 135.669 67.4323 135.712L66.9636 132.749ZM95.847 141.538C88.4101 136.002 77.0329 131.157 66.9636 132.749L67.4323 135.712C76.3773 134.298 86.9416 138.648 94.0556 143.944L95.847 141.538ZM115.902 160.13C108.414 152.226 103.379 147.145 95.847 141.538L94.0556 143.944C101.369 149.388 106.257 154.311 113.724 162.194L115.902 160.13ZM104.82 131.672C109.488 138.208 112.907 148.685 113.314 161.211L116.312 161.113C115.892 148.16 112.357 137.064 107.261 129.928L104.82 131.672ZM91.8462 118.589C96.2994 122.049 100.914 126.203 104.82 131.672L107.261 129.928C103.123 124.134 98.2629 119.775 93.6868 116.22L91.8462 118.589ZM86.0813 114.329C87.9215 115.652 89.8595 117.045 91.8462 118.589L93.6868 116.22C91.6495 114.637 89.6676 113.212 87.8324 111.893L86.0813 114.329ZM85.4069 113.844C85.63 114.005 85.855 114.167 86.0813 114.329L87.8324 111.893C87.6059 111.73 87.3817 111.569 87.1596 111.409L85.4069 113.844ZM79.8648 109.621C81.4777 110.999 83.3941 112.395 85.407 113.844L87.1596 111.409C85.1347 109.952 83.3171 108.625 81.8132 107.34L79.8648 109.621ZM58.8302 83.1311C61.7954 90.4638 67.7837 99.3029 79.8648 109.621L81.8132 107.34C70.0029 97.253 64.354 88.7887 61.6114 82.0064L58.8302 83.1311ZM55.9066 67.8798C56.019 71.3894 56.1823 76.583 58.8302 83.1311L61.6114 82.0064C59.1702 75.9694 59.015 71.2162 58.9051 67.7838L55.9066 67.8798ZM55.8644 66.6918C55.8804 67.0607 55.893 67.4537 55.9066 67.8798L58.9051 67.7838C58.8915 67.3615 58.8784 66.951 58.8616 66.562L55.8644 66.6918ZM55.864 66.6829L55.8644 66.6917L58.8616 66.5621L58.8612 66.5533L55.864 66.6829ZM57.2134 65.1256L57.2133 65.1256L57.5119 68.1107L57.5119 68.1107L57.2134 65.1256ZM78.7687 33.6295C58.8605 41.3359 55.6416 60.247 55.8635 66.6699L58.8617 66.5663C58.6625 60.8008 61.6238 43.4831 79.8517 36.4272L78.7687 33.6295ZM105.997 34.7608C98.4024 31.5073 88.8209 29.7384 78.7687 33.6295L79.8517 36.4272C88.9463 32.9068 97.6823 34.4625 104.816 37.5185L105.997 34.7608ZM91.3339 150.323C91.1583 148.954 89.9058 147.986 88.5363 148.162L88.9177 151.137C88.6438 151.172 88.3933 150.979 88.3582 150.705L91.3339 150.323ZM92.0456 155.66C91.811 153.936 91.5695 152.161 91.3339 150.323L88.3582 150.705C88.5956 152.556 88.8386 154.342 89.073 156.064L92.0456 155.66ZM93.6008 175.459C93.918 169.379 93.0359 162.935 92.0456 155.66L89.073 156.064C90.0732 163.413 90.9045 169.559 90.6048 175.303L93.6008 175.459ZM84.8382 198.162C90.8904 190.268 93.199 183.16 93.6008 175.459L90.6048 175.303C90.2352 182.388 88.1469 188.916 82.4574 196.337L84.8382 198.162ZM55.7601 218.971C65.8255 214.851 76.905 208.51 84.8382 198.162L82.4574 196.337C74.9782 206.093 64.4441 212.174 54.6236 216.194L55.7601 218.971ZM37.2201 225.034C42.0615 223.691 48.7694 221.832 55.7601 218.971L54.6236 216.194C47.8163 218.981 41.2656 220.799 36.4183 222.144L37.2201 225.034ZM32.1447 226.513C33.4033 226.094 35.1164 225.618 37.2201 225.034L36.4183 222.144C34.345 222.719 32.5446 223.217 31.1961 223.667L32.1447 226.513ZM28.9825 224.932C29.4191 226.242 30.8349 226.95 32.1447 226.513L31.196 223.667C31.4581 223.58 31.7412 223.721 31.8285 223.983L28.9825 224.932ZM30.5636 221.77C29.2537 222.206 28.5458 223.622 28.9825 224.932L31.8285 223.983C31.9158 224.245 31.7742 224.528 31.5123 224.616L30.5636 221.77ZM36.1002 220.152C33.9533 220.747 32.0575 221.272 30.5636 221.77L31.5123 224.616C32.9163 224.148 34.7264 223.646 36.901 223.044L36.1002 220.152ZM53.866 214.343C47.1623 217.087 40.9093 218.82 36.1002 220.152L36.901 223.044C41.7068 221.712 48.1159 219.939 55.0025 217.12L53.866 214.343ZM80.8702 195.12C73.6937 204.481 63.5232 210.39 53.866 214.343L55.0025 217.12C64.9046 213.067 75.6205 206.898 83.251 196.946L80.8702 195.12ZM88.6076 175.199C88.2593 181.873 86.3179 188.015 80.8702 195.12L83.251 196.946C89.0614 189.367 91.2231 182.645 91.6035 175.355L88.6076 175.199ZM87.102 156.42C88.0985 163.751 88.8965 169.66 88.6076 175.199L91.6035 175.355C91.91 169.48 91.0609 163.272 90.0747 156.016L87.102 156.42ZM86.3745 150.959C86.6182 152.861 86.8653 154.679 87.102 156.42L90.0747 156.016C89.8378 154.273 89.5922 152.466 89.3501 150.578L86.3745 150.959ZM88.5363 148.162C87.1667 148.337 86.1989 149.59 86.3745 150.959L89.3501 150.578C89.3852 150.852 89.1917 151.102 88.9177 151.137L88.5363 148.162Z" fill="url(#paint1_linear_37_14)"/>
<path d="M121.354 21.2186C121.354 23.8305 119.046 26.2186 115.854 26.2186C112.662 26.2186 110.354 23.8305 110.354 21.2186C110.354 18.6067 112.662 16.2186 115.854 16.2186C119.046 16.2186 121.354 18.6067 121.354 21.2186Z" stroke="#EDE57B" stroke-width="5"/>
<path d="M129.188 195V114.5H145.46V146.24H165.528L172.37 139.397V114.5H188.643V146.24L180.535 154.29L188.643 162.513V195H172.37V169.297L165.528 162.513H145.46V195H129.188ZM133.615 190.515H141.033V157.74H167.77L176.855 166.94V190.515H184.215V163.95L174.613 154.06L184.215 144.457V118.812H176.855V141.467L167.885 150.322H141.033V118.812H133.615V190.515Z" fill="url(#paint2_linear_37_14)"/>
<path d="M250.458 195L238.613 183.155V168.665H254.885V175.22L258.393 178.727H280.473L283.98 175.22V166.365L280.473 162.857H250.803L238.958 151.012V126.345L250.803 114.5H287.315L299.16 126.345V140.835H282.888V134.28L279.38 130.772H258.738L255.173 134.28V143.077L258.738 146.585H288.408L300.253 158.43V183.155L288.408 195H250.458ZM252.528 190.572H286.05L295.652 180.97V160.04L286.625 150.955H256.668L250.803 145.147V132.095L256.61 126.345H281.738L287.315 131.807V136.752H294.675V128.242L285.36 118.927H252.988L243.385 128.53V148.655L253.103 158.43H283.003L288.235 163.49V177.405L282.428 183.212H256.15L250.63 177.692V172.747H243.213V181.257L252.528 190.572Z" fill="url(#paint3_linear_37_14)"/>
<path d="M136.621 203.045C136.715 203.045 136.787 203.062 136.838 203.098C136.889 203.129 136.926 203.188 136.949 203.273C136.977 203.359 136.99 203.484 136.99 203.648C136.99 203.812 136.977 203.938 136.949 204.023C136.926 204.109 136.889 204.168 136.838 204.199C136.787 204.23 136.715 204.246 136.621 204.246H136.369L134.318 206.244C134.537 206.256 134.736 206.316 134.916 206.426C135.096 206.531 135.252 206.678 135.385 206.865C135.475 206.994 135.557 207.129 135.631 207.27C135.705 207.406 135.789 207.574 135.883 207.773C136.023 208.062 136.121 208.254 136.176 208.348C136.262 208.492 136.352 208.604 136.445 208.682C136.539 208.76 136.646 208.799 136.768 208.799H136.826C136.92 208.799 136.992 208.816 137.043 208.852C137.094 208.883 137.131 208.941 137.154 209.027C137.182 209.113 137.195 209.238 137.195 209.402C137.195 209.566 137.182 209.691 137.154 209.777C137.131 209.863 137.094 209.922 137.043 209.953C136.992 209.984 136.92 210 136.826 210H136.012C135.773 210 135.57 209.928 135.402 209.783C135.238 209.635 135.086 209.43 134.945 209.168C134.855 209 134.762 208.805 134.664 208.582C134.594 208.434 134.521 208.285 134.447 208.137C134.373 207.988 134.305 207.865 134.242 207.768C134.141 207.615 134.027 207.496 133.902 207.41C133.777 207.32 133.648 207.275 133.516 207.275C133.344 207.275 133.189 207.342 133.053 207.475L132.754 207.768V208.799H133.428C133.521 208.799 133.594 208.816 133.645 208.852C133.695 208.883 133.732 208.941 133.756 209.027C133.783 209.113 133.797 209.238 133.797 209.402C133.797 209.566 133.783 209.691 133.756 209.777C133.732 209.863 133.695 209.922 133.645 209.953C133.594 209.984 133.521 210 133.428 210H130.662C130.568 210 130.496 209.984 130.445 209.953C130.395 209.922 130.355 209.863 130.328 209.777C130.305 209.691 130.293 209.566 130.293 209.402C130.293 209.238 130.305 209.113 130.328 209.027C130.355 208.941 130.395 208.883 130.445 208.852C130.496 208.816 130.568 208.799 130.662 208.799H131.289V204.246H130.662C130.568 204.246 130.496 204.23 130.445 204.199C130.395 204.168 130.355 204.109 130.328 204.023C130.305 203.938 130.293 203.812 130.293 203.648C130.293 203.484 130.305 203.359 130.328 203.273C130.355 203.188 130.395 203.129 130.445 203.098C130.496 203.062 130.568 203.045 130.662 203.045H133.029C133.123 203.045 133.195 203.062 133.246 203.098C133.297 203.129 133.334 203.188 133.357 203.273C133.385 203.359 133.398 203.484 133.398 203.648C133.398 203.812 133.385 203.938 133.357 204.023C133.334 204.109 133.297 204.168 133.246 204.199C133.195 204.23 133.123 204.246 133.029 204.246H132.754V206.121L134.652 204.246H134.342C134.248 204.246 134.176 204.23 134.125 204.199C134.074 204.168 134.035 204.109 134.008 204.023C133.984 203.938 133.973 203.812 133.973 203.648C133.973 203.484 133.984 203.359 134.008 203.273C134.035 203.188 134.074 203.129 134.125 203.098C134.176 203.062 134.248 203.045 134.342 203.045H136.621ZM149.68 203.045C149.816 203.045 149.914 203.074 149.973 203.133C150.031 203.191 150.061 203.289 150.061 203.426V205.195C150.061 205.328 150.004 205.424 149.891 205.482C149.777 205.537 149.596 205.564 149.346 205.564C149.104 205.564 148.938 205.537 148.848 205.482C148.758 205.428 148.713 205.332 148.713 205.195V204.305H146.369V205.787H147.799C147.936 205.787 148.031 205.832 148.086 205.922C148.141 206.012 148.168 206.178 148.168 206.42C148.168 206.662 148.141 206.828 148.086 206.918C148.031 207.004 147.936 207.047 147.799 207.047H146.369V208.74H148.772V207.557C148.772 207.424 148.828 207.33 148.941 207.275C149.059 207.217 149.248 207.188 149.51 207.188C149.768 207.188 149.943 207.215 150.037 207.27C150.131 207.324 150.178 207.42 150.178 207.557V209.619C150.178 209.752 150.149 209.85 150.09 209.912C150.031 209.971 149.934 210 149.797 210H144.336C144.242 210 144.17 209.984 144.119 209.953C144.068 209.922 144.029 209.863 144.002 209.777C143.979 209.691 143.967 209.566 143.967 209.402C143.967 209.238 143.979 209.113 144.002 209.027C144.029 208.941 144.068 208.883 144.119 208.852C144.17 208.816 144.242 208.799 144.336 208.799H144.904V204.246H144.336C144.242 204.246 144.17 204.23 144.119 204.199C144.068 204.168 144.029 204.109 144.002 204.023C143.979 203.938 143.967 203.812 143.967 203.648C143.967 203.484 143.979 203.359 144.002 203.273C144.029 203.188 144.068 203.129 144.119 203.098C144.17 203.062 144.242 203.045 144.336 203.045H149.68ZM161.549 203.045C161.643 203.045 161.715 203.062 161.766 203.098C161.817 203.129 161.854 203.188 161.877 203.273C161.904 203.359 161.918 203.484 161.918 203.648C161.918 203.812 161.904 203.938 161.877 204.023C161.854 204.109 161.817 204.168 161.766 204.199C161.715 204.23 161.643 204.246 161.549 204.246H160.272V208.74H162.328V206.912C162.328 206.779 162.387 206.686 162.504 206.631C162.625 206.572 162.824 206.543 163.102 206.543C163.285 206.543 163.426 206.557 163.524 206.584C163.625 206.607 163.695 206.645 163.735 206.695C163.774 206.746 163.793 206.818 163.793 206.912V209.619C163.793 209.752 163.764 209.85 163.705 209.912C163.647 209.971 163.549 210 163.412 210H157.951C157.858 210 157.785 209.984 157.735 209.953C157.684 209.922 157.645 209.863 157.617 209.777C157.594 209.691 157.582 209.566 157.582 209.402C157.582 209.238 157.594 209.113 157.617 209.027C157.645 208.941 157.684 208.883 157.735 208.852C157.785 208.816 157.858 208.799 157.951 208.799H158.807V204.246H157.951C157.858 204.246 157.785 204.23 157.735 204.199C157.684 204.168 157.645 204.109 157.617 204.023C157.594 203.938 157.582 203.812 157.582 203.648C157.582 203.484 157.594 203.359 157.617 203.273C157.645 203.188 157.684 203.129 157.735 203.098C157.785 203.062 157.858 203.045 157.951 203.045H161.549ZM174.444 202.916C175.084 202.916 175.649 203.062 176.137 203.355C176.625 203.645 177.002 204.062 177.268 204.609C177.537 205.152 177.672 205.789 177.672 206.52C177.672 207.25 177.537 207.889 177.268 208.436C177.002 208.979 176.625 209.396 176.137 209.689C175.649 209.982 175.084 210.129 174.444 210.129C173.803 210.129 173.239 209.982 172.75 209.689C172.262 209.396 171.883 208.979 171.614 208.436C171.348 207.889 171.215 207.25 171.215 206.52C171.215 205.789 171.348 205.152 171.614 204.609C171.883 204.062 172.262 203.645 172.75 203.355C173.239 203.062 173.803 202.916 174.444 202.916ZM174.444 204.246C173.901 204.246 173.489 204.441 173.207 204.832C172.926 205.223 172.785 205.785 172.785 206.52C172.785 207.254 172.926 207.818 173.207 208.213C173.489 208.604 173.901 208.799 174.444 208.799C174.987 208.799 175.399 208.604 175.68 208.213C175.961 207.818 176.102 207.254 176.102 206.52C176.102 205.785 175.961 205.223 175.68 204.832C175.399 204.441 174.987 204.246 174.444 204.246ZM191.112 203.045C191.205 203.045 191.278 203.062 191.328 203.098C191.379 203.129 191.416 203.188 191.44 203.273C191.467 203.359 191.481 203.484 191.481 203.648C191.481 203.812 191.467 203.938 191.44 204.023C191.416 204.109 191.379 204.168 191.328 204.199C191.278 204.23 191.205 204.246 191.112 204.246H190.795L190.877 208.799H191.229C191.323 208.799 191.395 208.816 191.446 208.852C191.496 208.883 191.534 208.941 191.557 209.027C191.584 209.113 191.598 209.238 191.598 209.402C191.598 209.566 191.584 209.691 191.557 209.777C191.534 209.863 191.496 209.922 191.446 209.953C191.395 209.984 191.323 210 191.229 210H189.037C188.944 210 188.871 209.984 188.821 209.953C188.77 209.922 188.731 209.863 188.703 209.777C188.68 209.691 188.668 209.566 188.668 209.402C188.668 209.238 188.68 209.113 188.703 209.027C188.731 208.941 188.77 208.883 188.821 208.852C188.871 208.816 188.944 208.799 189.037 208.799H189.576L189.541 205.33L188.657 207.721C188.606 207.857 188.535 207.955 188.446 208.014C188.356 208.068 188.229 208.096 188.065 208.096C187.897 208.096 187.768 208.068 187.678 208.014C187.588 207.955 187.516 207.857 187.461 207.721L186.571 205.348L186.535 208.799H187.08C187.174 208.799 187.246 208.816 187.297 208.852C187.348 208.883 187.385 208.941 187.409 209.027C187.436 209.113 187.45 209.238 187.45 209.402C187.45 209.566 187.436 209.691 187.409 209.777C187.385 209.863 187.348 209.922 187.297 209.953C187.246 209.984 187.174 210 187.08 210H184.889C184.795 210 184.723 209.984 184.672 209.953C184.621 209.922 184.582 209.863 184.555 209.777C184.532 209.691 184.52 209.566 184.52 209.402C184.52 209.238 184.532 209.113 184.555 209.027C184.582 208.941 184.621 208.883 184.672 208.852C184.723 208.816 184.795 208.799 184.889 208.799H185.235L185.323 204.246H185.006C184.912 204.246 184.84 204.23 184.789 204.199C184.739 204.168 184.7 204.109 184.672 204.023C184.649 203.938 184.637 203.812 184.637 203.648C184.637 203.484 184.649 203.359 184.672 203.273C184.7 203.188 184.739 203.129 184.789 203.098C184.84 203.062 184.912 203.045 185.006 203.045H186.67C186.752 203.045 186.819 203.059 186.869 203.086C186.924 203.113 186.963 203.16 186.987 203.227L188.059 206.104L189.125 203.227C189.149 203.16 189.186 203.113 189.237 203.086C189.291 203.059 189.36 203.045 189.442 203.045H191.112ZM202.002 203.045C202.901 203.045 203.58 203.248 204.041 203.654C204.506 204.057 204.739 204.639 204.739 205.4C204.739 206.162 204.506 206.746 204.041 207.152C203.58 207.559 202.901 207.762 202.002 207.762H201.123V208.799H202.395C202.489 208.799 202.561 208.816 202.612 208.852C202.662 208.883 202.7 208.941 202.723 209.027C202.75 209.113 202.764 209.238 202.764 209.402C202.764 209.566 202.75 209.691 202.723 209.777C202.7 209.863 202.662 209.922 202.612 209.953C202.561 209.984 202.489 210 202.395 210H198.797C198.704 210 198.631 209.984 198.58 209.953C198.53 209.922 198.491 209.863 198.463 209.777C198.44 209.691 198.428 209.566 198.428 209.402C198.428 209.238 198.44 209.113 198.463 209.027C198.491 208.941 198.53 208.883 198.58 208.852C198.631 208.816 198.704 208.799 198.797 208.799H199.659V204.246H198.797C198.704 204.246 198.631 204.23 198.58 204.199C198.53 204.168 198.491 204.109 198.463 204.023C198.44 203.938 198.428 203.812 198.428 203.648C198.428 203.484 198.44 203.359 198.463 203.273C198.491 203.188 198.53 203.129 198.58 203.098C198.631 203.062 198.704 203.045 198.797 203.045H202.002ZM201.123 206.502H201.821C202.286 206.502 202.635 206.412 202.87 206.232C203.108 206.053 203.227 205.775 203.227 205.4C203.227 205.025 203.108 204.75 202.87 204.574C202.635 204.395 202.286 204.305 201.821 204.305H201.123V206.502ZM215.29 202.916C215.93 202.916 216.495 203.062 216.983 203.355C217.471 203.645 217.848 204.062 218.114 204.609C218.383 205.152 218.518 205.789 218.518 206.52C218.518 207.25 218.383 207.889 218.114 208.436C217.848 208.979 217.471 209.396 216.983 209.689C216.495 209.982 215.93 210.129 215.29 210.129C214.649 210.129 214.084 209.982 213.596 209.689C213.108 209.396 212.729 208.979 212.459 208.436C212.194 207.889 212.061 207.25 212.061 206.52C212.061 205.789 212.194 205.152 212.459 204.609C212.729 204.062 213.108 203.645 213.596 203.355C214.084 203.062 214.649 202.916 215.29 202.916ZM215.29 204.246C214.747 204.246 214.334 204.441 214.053 204.832C213.772 205.223 213.631 205.785 213.631 206.52C213.631 207.254 213.772 207.818 214.053 208.213C214.334 208.604 214.747 208.799 215.29 208.799C215.833 208.799 216.245 208.604 216.526 208.213C216.807 207.818 216.948 207.254 216.948 206.52C216.948 205.785 216.807 205.223 216.526 204.832C216.245 204.441 215.833 204.246 215.29 204.246ZM231.928 203.045C232.022 203.045 232.094 203.062 232.145 203.098C232.196 203.129 232.233 203.188 232.256 203.273C232.284 203.359 232.297 203.484 232.297 203.648C232.297 203.812 232.284 203.938 232.256 204.023C232.233 204.109 232.196 204.168 232.145 204.199C232.094 204.23 232.022 204.246 231.928 204.246H231.676L229.626 206.244C229.844 206.256 230.044 206.316 230.223 206.426C230.403 206.531 230.559 206.678 230.692 206.865C230.782 206.994 230.864 207.129 230.938 207.27C231.012 207.406 231.096 207.574 231.19 207.773C231.331 208.062 231.428 208.254 231.483 208.348C231.569 208.492 231.659 208.604 231.753 208.682C231.846 208.76 231.954 208.799 232.075 208.799H232.133C232.227 208.799 232.299 208.816 232.35 208.852C232.401 208.883 232.438 208.941 232.461 209.027C232.489 209.113 232.503 209.238 232.503 209.402C232.503 209.566 232.489 209.691 232.461 209.777C232.438 209.863 232.401 209.922 232.35 209.953C232.299 209.984 232.227 210 232.133 210H231.319C231.081 210 230.878 209.928 230.71 209.783C230.545 209.635 230.393 209.43 230.253 209.168C230.163 209 230.069 208.805 229.971 208.582C229.901 208.434 229.829 208.285 229.754 208.137C229.68 207.988 229.612 207.865 229.549 207.768C229.448 207.615 229.335 207.496 229.21 207.41C229.085 207.32 228.956 207.275 228.823 207.275C228.651 207.275 228.497 207.342 228.36 207.475L228.061 207.768V208.799H228.735C228.829 208.799 228.901 208.816 228.952 208.852C229.003 208.883 229.04 208.941 229.063 209.027C229.09 209.113 229.104 209.238 229.104 209.402C229.104 209.566 229.09 209.691 229.063 209.777C229.04 209.863 229.003 209.922 228.952 209.953C228.901 209.984 228.829 210 228.735 210H225.969C225.876 210 225.803 209.984 225.753 209.953C225.702 209.922 225.663 209.863 225.635 209.777C225.612 209.691 225.6 209.566 225.6 209.402C225.6 209.238 225.612 209.113 225.635 209.027C225.663 208.941 225.702 208.883 225.753 208.852C225.803 208.816 225.876 208.799 225.969 208.799H226.596V204.246H225.969C225.876 204.246 225.803 204.23 225.753 204.199C225.702 204.168 225.663 204.109 225.635 204.023C225.612 203.938 225.6 203.812 225.6 203.648C225.6 203.484 225.612 203.359 225.635 203.273C225.663 203.188 225.702 203.129 225.753 203.098C225.803 203.062 225.876 203.045 225.969 203.045H228.336C228.43 203.045 228.503 203.062 228.553 203.098C228.604 203.129 228.641 203.188 228.665 203.273C228.692 203.359 228.706 203.484 228.706 203.648C228.706 203.812 228.692 203.938 228.665 204.023C228.641 204.109 228.604 204.168 228.553 204.199C228.503 204.23 228.43 204.246 228.336 204.246H228.061V206.121L229.96 204.246H229.649C229.555 204.246 229.483 204.23 229.432 204.199C229.381 204.168 229.342 204.109 229.315 204.023C229.292 203.938 229.28 203.812 229.28 203.648C229.28 203.484 229.292 203.359 229.315 203.273C229.342 203.188 229.381 203.129 229.432 203.098C229.483 203.062 229.555 203.045 229.649 203.045H231.928ZM257.905 202.916C258.155 202.916 258.333 202.945 258.438 203.004C258.544 203.059 258.596 203.152 258.596 203.285V204.891C258.596 205.023 258.553 205.119 258.467 205.178C258.385 205.232 258.249 205.26 258.057 205.26C257.928 205.26 257.827 205.244 257.753 205.213C257.678 205.182 257.62 205.135 257.577 205.072C257.393 204.783 257.157 204.561 256.868 204.404C256.579 204.244 256.245 204.164 255.866 204.164C255.581 204.164 255.356 204.236 255.192 204.381C255.032 204.525 254.952 204.713 254.952 204.943C254.952 205.057 254.987 205.15 255.057 205.225C255.128 205.295 255.229 205.357 255.362 205.412C255.534 205.479 255.829 205.547 256.247 205.617C256.653 205.695 256.985 205.77 257.243 205.84C257.501 205.906 257.743 206.01 257.969 206.15C258.594 206.529 258.907 207.141 258.907 207.984C258.907 208.414 258.815 208.789 258.632 209.109C258.452 209.43 258.18 209.68 257.817 209.859C257.454 210.039 257.007 210.129 256.475 210.129C255.823 210.129 255.27 209.932 254.817 209.537V209.76C254.817 209.893 254.768 209.986 254.671 210.041C254.577 210.1 254.407 210.129 254.161 210.129C253.911 210.129 253.733 210.1 253.628 210.041C253.522 209.986 253.469 209.893 253.469 209.76V207.803C253.469 207.67 253.51 207.576 253.592 207.521C253.678 207.463 253.817 207.434 254.009 207.434C254.145 207.434 254.253 207.451 254.331 207.486C254.413 207.521 254.475 207.582 254.518 207.668C254.729 208.07 254.981 208.373 255.274 208.576C255.567 208.779 255.909 208.881 256.3 208.881C256.643 208.881 256.905 208.811 257.085 208.67C257.264 208.529 257.354 208.334 257.354 208.084C257.354 207.928 257.313 207.797 257.231 207.691C257.153 207.582 257.038 207.49 256.885 207.416C256.76 207.354 256.622 207.303 256.469 207.264C256.321 207.225 256.1 207.174 255.807 207.111C255.471 207.041 255.194 206.977 254.975 206.918C254.757 206.859 254.551 206.779 254.36 206.678C254.063 206.521 253.831 206.314 253.663 206.057C253.495 205.795 253.411 205.457 253.411 205.043C253.411 204.629 253.507 204.262 253.698 203.941C253.889 203.617 254.157 203.365 254.501 203.186C254.848 203.006 255.245 202.916 255.69 202.916C256.003 202.916 256.292 202.967 256.557 203.068C256.823 203.17 257.053 203.314 257.249 203.502V203.285C257.249 203.152 257.296 203.059 257.389 203.004C257.487 202.945 257.659 202.916 257.905 202.916ZM272.393 203.045C272.53 203.045 272.628 203.074 272.686 203.133C272.745 203.191 272.774 203.289 272.774 203.426V205.898C272.774 206.027 272.72 206.121 272.61 206.18C272.505 206.238 272.341 206.268 272.118 206.268C271.903 206.268 271.753 206.24 271.667 206.186C271.585 206.127 271.544 206.031 271.544 205.898V204.305H270.483V208.799H271.749C271.843 208.799 271.915 208.816 271.966 208.852C272.016 208.883 272.054 208.941 272.077 209.027C272.104 209.113 272.118 209.238 272.118 209.402C272.118 209.566 272.104 209.691 272.077 209.777C272.054 209.863 272.016 209.922 271.966 209.953C271.915 209.984 271.843 210 271.749 210H267.753C267.659 210 267.587 209.984 267.536 209.953C267.485 209.922 267.446 209.863 267.419 209.777C267.395 209.691 267.384 209.566 267.384 209.402C267.384 209.238 267.395 209.113 267.419 209.027C267.446 208.941 267.485 208.883 267.536 208.852C267.587 208.816 267.659 208.799 267.753 208.799H269.018V204.305H267.958V205.898C267.958 206.027 267.903 206.121 267.794 206.18C267.688 206.238 267.524 206.268 267.302 206.268C267.087 206.268 266.936 206.24 266.85 206.186C266.768 206.127 266.727 206.031 266.727 205.898V203.426C266.727 203.289 266.757 203.191 266.815 203.133C266.878 203.074 266.975 203.045 267.108 203.045H272.393ZM286.302 203.045C286.395 203.045 286.468 203.062 286.518 203.098C286.569 203.129 286.606 203.188 286.63 203.273C286.657 203.359 286.671 203.484 286.671 203.648C286.671 203.812 286.657 203.938 286.63 204.023C286.606 204.109 286.569 204.168 286.518 204.199C286.468 204.23 286.395 204.246 286.302 204.246H286.026V207.58C286.026 208.119 285.919 208.58 285.704 208.963C285.489 209.346 285.182 209.637 284.784 209.836C284.386 210.031 283.913 210.129 283.366 210.129C282.819 210.129 282.347 210.031 281.948 209.836C281.55 209.637 281.243 209.346 281.028 208.963C280.813 208.58 280.706 208.119 280.706 207.58V204.246H280.431C280.337 204.246 280.265 204.23 280.214 204.199C280.163 204.168 280.124 204.109 280.097 204.023C280.073 203.938 280.061 203.812 280.061 203.648C280.061 203.484 280.073 203.359 280.097 203.273C280.124 203.188 280.163 203.129 280.214 203.098C280.265 203.062 280.337 203.045 280.431 203.045H282.622C282.716 203.045 282.788 203.062 282.839 203.098C282.89 203.129 282.927 203.188 282.95 203.273C282.977 203.359 282.991 203.484 282.991 203.648C282.991 203.812 282.977 203.938 282.95 204.023C282.927 204.109 282.89 204.168 282.839 204.199C282.788 204.23 282.716 204.246 282.622 204.246H282.171V207.463C282.171 207.912 282.278 208.248 282.493 208.471C282.708 208.689 282.999 208.799 283.366 208.799C283.733 208.799 284.024 208.689 284.239 208.471C284.454 208.248 284.561 207.912 284.561 207.463V204.246H284.11C284.016 204.246 283.944 204.23 283.893 204.199C283.843 204.168 283.804 204.109 283.776 204.023C283.753 203.938 283.741 203.812 283.741 203.648C283.741 203.484 283.753 203.359 283.776 203.273C283.804 203.188 283.843 203.129 283.893 203.098C283.944 203.062 284.016 203.045 284.11 203.045H286.302ZM296.864 203.045C297.548 203.045 298.136 203.18 298.628 203.449C299.12 203.719 299.497 204.115 299.759 204.639C300.02 205.158 300.151 205.785 300.151 206.52C300.151 207.254 300.02 207.883 299.759 208.406C299.497 208.926 299.12 209.322 298.628 209.596C298.136 209.865 297.548 210 296.864 210H294.104C294.011 210 293.938 209.984 293.888 209.953C293.837 209.922 293.798 209.863 293.77 209.777C293.747 209.691 293.735 209.566 293.735 209.402C293.735 209.238 293.747 209.113 293.77 209.027C293.798 208.941 293.837 208.883 293.888 208.852C293.938 208.816 294.011 208.799 294.104 208.799H294.673V204.246H294.104C294.011 204.246 293.938 204.23 293.888 204.199C293.837 204.168 293.798 204.109 293.77 204.023C293.747 203.938 293.735 203.812 293.735 203.648C293.735 203.484 293.747 203.359 293.77 203.273C293.798 203.188 293.837 203.129 293.888 203.098C293.938 203.062 294.011 203.045 294.104 203.045H296.864ZM296.138 208.74H296.747C297.353 208.74 297.81 208.553 298.118 208.178C298.427 207.799 298.581 207.246 298.581 206.52C298.581 205.793 298.427 205.242 298.118 204.867C297.81 204.492 297.353 204.305 296.747 204.305H296.138V208.74ZM312.712 203.045C312.806 203.045 312.878 203.062 312.929 203.098C312.98 203.129 313.017 203.188 313.04 203.273C313.067 203.359 313.081 203.484 313.081 203.648C313.081 203.812 313.067 203.938 313.04 204.023C313.017 204.109 312.98 204.168 312.929 204.199C312.878 204.23 312.806 204.246 312.712 204.246H311.329V208.799H312.829C312.923 208.799 312.995 208.816 313.046 208.852C313.097 208.883 313.134 208.941 313.157 209.027C313.185 209.113 313.198 209.238 313.198 209.402C313.198 209.566 313.185 209.691 313.157 209.777C313.134 209.863 313.097 209.922 313.046 209.953C312.995 209.984 312.923 210 312.829 210H308.364C308.271 210 308.198 209.984 308.148 209.953C308.097 209.922 308.058 209.863 308.03 209.777C308.007 209.691 307.995 209.566 307.995 209.402C307.995 209.238 308.007 209.113 308.03 209.027C308.058 208.941 308.097 208.883 308.148 208.852C308.198 208.816 308.271 208.799 308.364 208.799H309.864V204.246H308.481C308.388 204.246 308.315 204.23 308.265 204.199C308.214 204.168 308.175 204.109 308.148 204.023C308.124 203.938 308.112 203.812 308.112 203.648C308.112 203.484 308.124 203.359 308.148 203.273C308.175 203.188 308.214 203.129 308.265 203.098C308.315 203.062 308.388 203.045 308.481 203.045H312.712ZM338.548 203.045C338.642 203.045 338.714 203.062 338.765 203.098C338.816 203.129 338.853 203.188 338.876 203.273C338.904 203.359 338.917 203.484 338.917 203.648C338.917 203.812 338.904 203.938 338.876 204.023C338.853 204.109 338.816 204.168 338.765 204.199C338.714 204.23 338.642 204.246 338.548 204.246H337.271V208.74H339.327V206.912C339.327 206.779 339.386 206.686 339.503 206.631C339.624 206.572 339.823 206.543 340.101 206.543C340.284 206.543 340.425 206.557 340.523 206.584C340.624 206.607 340.695 206.645 340.734 206.695C340.773 206.746 340.792 206.818 340.792 206.912V209.619C340.792 209.752 340.763 209.85 340.704 209.912C340.646 209.971 340.548 210 340.411 210H334.95C334.857 210 334.784 209.984 334.734 209.953C334.683 209.922 334.644 209.863 334.616 209.777C334.593 209.691 334.581 209.566 334.581 209.402C334.581 209.238 334.593 209.113 334.616 209.027C334.644 208.941 334.683 208.883 334.734 208.852C334.784 208.816 334.857 208.799 334.95 208.799H335.806V204.246H334.95C334.857 204.246 334.784 204.23 334.734 204.199C334.683 204.168 334.644 204.109 334.616 204.023C334.593 203.938 334.581 203.812 334.581 203.648C334.581 203.484 334.593 203.359 334.616 203.273C334.644 203.188 334.683 203.129 334.734 203.098C334.784 203.062 334.857 203.045 334.95 203.045H338.548ZM353.558 203.045C353.652 203.045 353.724 203.062 353.775 203.098C353.825 203.129 353.863 203.188 353.886 203.273C353.913 203.359 353.927 203.484 353.927 203.648C353.927 203.812 353.913 203.938 353.886 204.023C353.863 204.109 353.825 204.168 353.775 204.199C353.724 204.23 353.652 204.246 353.558 204.246H352.175V208.799H353.675C353.769 208.799 353.841 208.816 353.892 208.852C353.943 208.883 353.98 208.941 354.003 209.027C354.031 209.113 354.044 209.238 354.044 209.402C354.044 209.566 354.031 209.691 354.003 209.777C353.98 209.863 353.943 209.922 353.892 209.953C353.841 209.984 353.769 210 353.675 210H349.21C349.116 210 349.044 209.984 348.993 209.953C348.943 209.922 348.904 209.863 348.876 209.777C348.853 209.691 348.841 209.566 348.841 209.402C348.841 209.238 348.853 209.113 348.876 209.027C348.904 208.941 348.943 208.883 348.993 208.852C349.044 208.816 349.116 208.799 349.21 208.799H350.71V204.246H349.327C349.234 204.246 349.161 204.23 349.111 204.199C349.06 204.168 349.021 204.109 348.993 204.023C348.97 203.938 348.958 203.812 348.958 203.648C348.958 203.484 348.97 203.359 348.993 203.273C349.021 203.188 349.06 203.129 349.111 203.098C349.161 203.062 349.234 203.045 349.327 203.045H353.558ZM368.111 203.045C368.204 203.045 368.277 203.062 368.327 203.098C368.378 203.129 368.415 203.188 368.439 203.273C368.466 203.359 368.48 203.484 368.48 203.648C368.48 203.812 368.466 203.938 368.439 204.023C368.415 204.109 368.378 204.168 368.327 204.199C368.277 204.23 368.204 204.246 368.111 204.246H367.777V209.742C367.777 209.871 367.728 209.967 367.63 210.029C367.533 210.096 367.367 210.129 367.132 210.129C366.952 210.129 366.818 210.104 366.728 210.053C366.642 210.006 366.566 209.928 366.499 209.818L363.863 205.453H363.839V208.799H364.49C364.583 208.799 364.656 208.816 364.706 208.852C364.757 208.883 364.794 208.941 364.818 209.027C364.845 209.113 364.859 209.238 364.859 209.402C364.859 209.566 364.845 209.691 364.818 209.777C364.794 209.863 364.757 209.922 364.706 209.953C364.656 209.984 364.583 210 364.49 210H362.122C362.029 210 361.956 209.984 361.906 209.953C361.855 209.922 361.816 209.863 361.788 209.777C361.765 209.691 361.753 209.566 361.753 209.402C361.753 209.238 361.765 209.113 361.788 209.027C361.816 208.941 361.855 208.883 361.906 208.852C361.956 208.816 362.029 208.799 362.122 208.799H362.515V204.246H362.122C362.029 204.246 361.956 204.23 361.906 204.199C361.855 204.168 361.816 204.109 361.788 204.023C361.765 203.938 361.753 203.812 361.753 203.648C361.753 203.484 361.765 203.359 361.788 203.273C361.816 203.188 361.855 203.129 361.906 203.098C361.956 203.062 362.029 203.045 362.122 203.045H363.669C363.826 203.045 363.935 203.098 363.997 203.203L366.429 207.229H366.452V204.246H365.913C365.82 204.246 365.747 204.23 365.697 204.199C365.646 204.168 365.607 204.109 365.579 204.023C365.556 203.938 365.544 203.812 365.544 203.648C365.544 203.484 365.556 203.359 365.579 203.273C365.607 203.188 365.646 203.129 365.697 203.098C365.747 203.062 365.82 203.045 365.913 203.045H368.111ZM381.609 203.045C381.703 203.045 381.775 203.062 381.826 203.098C381.876 203.129 381.914 203.188 381.937 203.273C381.964 203.359 381.978 203.484 381.978 203.648C381.978 203.812 381.964 203.938 381.937 204.023C381.914 204.109 381.876 204.168 381.826 204.199C381.775 204.23 381.703 204.246 381.609 204.246H381.333V207.58C381.333 208.119 381.226 208.58 381.011 208.963C380.796 209.346 380.49 209.637 380.091 209.836C379.693 210.031 379.22 210.129 378.673 210.129C378.126 210.129 377.654 210.031 377.255 209.836C376.857 209.637 376.55 209.346 376.335 208.963C376.121 208.58 376.013 208.119 376.013 207.58V204.246H375.738C375.644 204.246 375.572 204.23 375.521 204.199C375.47 204.168 375.431 204.109 375.404 204.023C375.38 203.938 375.369 203.812 375.369 203.648C375.369 203.484 375.38 203.359 375.404 203.273C375.431 203.188 375.47 203.129 375.521 203.098C375.572 203.062 375.644 203.045 375.738 203.045H377.929C378.023 203.045 378.095 203.062 378.146 203.098C378.197 203.129 378.234 203.188 378.257 203.273C378.285 203.359 378.298 203.484 378.298 203.648C378.298 203.812 378.285 203.938 378.257 204.023C378.234 204.109 378.197 204.168 378.146 204.199C378.095 204.23 378.023 204.246 377.929 204.246H377.478V207.463C377.478 207.912 377.585 208.248 377.8 208.471C378.015 208.689 378.306 208.799 378.673 208.799C379.04 208.799 379.331 208.689 379.546 208.471C379.761 208.248 379.869 207.912 379.869 207.463V204.246H379.417C379.324 204.246 379.251 204.23 379.201 204.199C379.15 204.168 379.111 204.109 379.083 204.023C379.06 203.938 379.048 203.812 379.048 203.648C379.048 203.484 379.06 203.359 379.083 203.273C379.111 203.188 379.15 203.129 379.201 203.098C379.251 203.062 379.324 203.045 379.417 203.045H381.609ZM395.166 203.045C395.259 203.045 395.332 203.062 395.382 203.098C395.433 203.129 395.47 203.188 395.494 203.273C395.521 203.359 395.535 203.484 395.535 203.648C395.535 203.812 395.521 203.938 395.494 204.023C395.47 204.109 395.433 204.168 395.382 204.199C395.332 204.23 395.259 204.246 395.166 204.246H394.837L393.279 206.461L394.984 208.799H395.341C395.435 208.799 395.507 208.816 395.558 208.852C395.609 208.883 395.646 208.941 395.669 209.027C395.697 209.113 395.71 209.238 395.71 209.402C395.71 209.566 395.697 209.691 395.669 209.777C395.646 209.863 395.609 209.922 395.558 209.953C395.507 209.984 395.435 210 395.341 210H392.974C392.88 210 392.808 209.984 392.757 209.953C392.707 209.922 392.668 209.863 392.64 209.777C392.617 209.691 392.605 209.566 392.605 209.402C392.605 209.238 392.617 209.113 392.64 209.027C392.668 208.941 392.707 208.883 392.757 208.852C392.808 208.816 392.88 208.799 392.974 208.799H393.279L392.265 207.369L391.263 208.799H391.486C391.58 208.799 391.652 208.816 391.703 208.852C391.753 208.883 391.791 208.941 391.814 209.027C391.841 209.113 391.855 209.238 391.855 209.402C391.855 209.566 391.841 209.691 391.814 209.777C391.791 209.863 391.753 209.922 391.703 209.953C391.652 209.984 391.58 210 391.486 210H389.236C389.142 210 389.07 209.984 389.019 209.953C388.968 209.922 388.929 209.863 388.902 209.777C388.878 209.691 388.867 209.566 388.867 209.402C388.867 209.238 388.878 209.113 388.902 209.027C388.929 208.941 388.968 208.883 389.019 208.852C389.07 208.816 389.142 208.799 389.236 208.799H389.599L391.304 206.396L389.763 204.246H389.412C389.318 204.246 389.246 204.23 389.195 204.199C389.144 204.168 389.105 204.109 389.078 204.023C389.054 203.938 389.043 203.812 389.043 203.648C389.043 203.484 389.054 203.359 389.078 203.273C389.105 203.188 389.144 203.129 389.195 203.098C389.246 203.062 389.318 203.045 389.412 203.045H391.72C391.814 203.045 391.886 203.062 391.937 203.098C391.988 203.129 392.025 203.188 392.048 203.273C392.076 203.359 392.089 203.484 392.089 203.648C392.089 203.812 392.076 203.938 392.048 204.023C392.025 204.109 391.988 204.168 391.937 204.199C391.886 204.23 391.814 204.246 391.72 204.246H391.468L392.324 205.471L393.173 204.246H393.033C392.939 204.246 392.867 204.23 392.816 204.199C392.765 204.168 392.726 204.109 392.699 204.023C392.675 203.938 392.664 203.812 392.664 203.648C392.664 203.484 392.675 203.359 392.699 203.273C392.726 203.188 392.765 203.129 392.816 203.098C392.867 203.062 392.939 203.045 393.033 203.045H395.166Z" fill="#C3C260"/>
<path d="M348.188 195V114.5H364.46V178.727H399.42V195H348.188ZM352.673 190.63H395.05V183.212H360.033V118.812H352.673V190.63Z" fill="url(#paint4_linear_37_14)"/>
<circle cx="215" cy="175" r="6" fill="url(#paint5_linear_37_14)"/>
<circle cx="324" cy="175" r="6" fill="url(#paint6_linear_37_14)"/>
</g>
<defs>
<filter id="filter0_d_37_14" x="0.377808" y="0.500305" width="403.042" height="248.541" filterUnits="userSpaceOnUse" color-interpolation-filters="sRGB">
<feFlood flood-opacity="0" result="BackgroundImageFix"/>
<feColorMatrix in="SourceAlpha" type="matrix" values="0 0 0 0 0 0 0 0 0 0 0 0 0 0 0 0 0 0 127 0" result="hardAlpha"/>
<feOffset dy="4"/>
<feGaussianBlur stdDeviation="2"/>
<feComposite in2="hardAlpha" operator="out"/>
<feColorMatrix type="matrix" values="0 0 0 0 0 0 0 0 0 0 0 0 0 0 0 0 0 0 0.25 0"/>
<feBlend mode="normal" in2="BackgroundImageFix" result="effect1_dropShadow_37_14"/>
<feBlend mode="normal" in="SourceGraphic" in2="effect1_dropShadow_37_14" result="shape"/>
</filter>
<linearGradient id="paint0_linear_37_14" x1="85.9084" y1="2" x2="85.9084" y2="239.541" gradientUnits="userSpaceOnUse">
<stop stop-color="#C3C260"/>
<stop offset="0.567708" stop-color="#EDE57B"/>
<stop offset="1" stop-color="white"/>
</linearGradient>
<linearGradient id="paint1_linear_37_14" x1="85.9084" y1="2" x2="85.9084" y2="239.541" gradientUnits="userSpaceOnUse">
<stop stop-color="#C3C260"/>
<stop offset="0.567708" stop-color="#EDE57B"/>
<stop offset="1" stop-color="white"/>
</linearGradient>
<linearGradient id="paint2_linear_37_14" x1="207" y1="91" x2="207" y2="218" gradientUnits="userSpaceOnUse">
<stop stop-color="#C3C260"/>
<stop offset="0.567708" stop-color="#EDE57B"/>
<stop offset="1" stop-color="white"/>
</linearGradient>
<linearGradient id="paint3_linear_37_14" x1="318" y1="91" x2="318" y2="218" gradientUnits="userSpaceOnUse">
<stop stop-color="#C3C260"/>
<stop offset="0.567708" stop-color="#EDE57B"/>
<stop offset="1" stop-color="white"/>
</linearGradient>
<linearGradient id="paint4_linear_37_14" x1="413" y1="91" x2="413" y2="218" gradientUnits="userSpaceOnUse">
<stop stop-color="#C3C260"/>
<stop offset="0.567708" stop-color="#EDE57B"/>
<stop offset="1" stop-color="white"/>
</linearGradient>
<linearGradient id="paint5_linear_37_14" x1="215" y1="169" x2="215" y2="181" gradientUnits="userSpaceOnUse">
<stop offset="0.00520833" stop-color="#C3C260"/>
<stop offset="1" stop-color="#EDE57B"/>
</linearGradient>
<linearGradient id="paint6_linear_37_14" x1="324" y1="169" x2="324" y2="181" gradientUnits="userSpaceOnUse">
<stop offset="0.00520833" stop-color="#C3C260"/>
<stop offset="1" stop-color="#EDE57B"/>
</linearGradient>
</defs>
</svg>
